<?xml version="1.0" encoding="utf-8"?>
<!-- Generator: Adobe Illustrator 23.0.6, SVG Export Plug-In . SVG Version: 6.00 Build 0)  -->
<svg width="128px" height="29.22px" viewBox="0 0 92 21" version="1.1" xmlns="http://www.w3.org/2000/svg" xmlns:xlink="http://www.w3.org/1999/xlink">
<style type="text/css">
	.st0{fill:url(#SVGID_1_);}
	.st1{fill:url(#SVGID_2_);}
	.st2{fill:#FFFFFF;}
</style>
<title>Group 2</title>
<desc>Created with Sketch.</desc>
<g>
	<g>
		<g>
			<g>
				<linearGradient id="SVGID_1_" gradientUnits="userSpaceOnUse" x1="14.3822" y1="17.6779" x2="7.4359" y2="9.1057">
					<stop  offset="0" style="stop-color:#0E67DC"/>
					<stop  offset="1" style="stop-color:#2AA5FF"/>
				</linearGradient>
				<path class="st0" d="M17,13.9H8.3V11l2.5-2.5l2,2l1.3-1.3l0.8-0.8l-2.1-2.1L11.4,5c-0.2-0.2-0.4-0.2-0.6-0.2
					c-0.2,0-0.4,0.1-0.6,0.2L5.8,9.4c-0.4,0.4-0.6,0.8-0.6,1.4v5.4c0,0.5,0.4,0.8,0.8,0.8h12.8h0.4v-3.1H17z"/>
			</g>
		</g>
		<g>
			<linearGradient id="SVGID_2_" gradientUnits="userSpaceOnUse" x1="21.6356" y1="14.1787" x2="14.2458" y2="3.9315">
				<stop  offset="0" style="stop-color:#41D3BD"/>
				<stop  offset="0.9996" style="stop-color:#90FFFF"/>
			</linearGradient>
			<path class="st1" d="M22.3,9.8v6.3c0,0.5-0.4,0.8-0.8,0.8h-2.1v-3.1v-3.6l-3.1-3.1l-1.3,1.3l-2.1-2.1l2.8-2.8
				c0.3-0.3,0.9-0.3,1.2,0l4.9,4.9C22.1,8.8,22.3,9.3,22.3,9.8z"/>
		</g>
	</g>
	<g>
		<path class="st2" d="M33.7,13.5h-5.4l-1.2,3.2H25l4.9-13.4h2h0.1L37,16.7h-2.2L33.7,13.5z M33.1,11.7L31,5.9l-2.1,5.9H33.1z"/>
		<path class="st2" d="M46.1,7.6l-3.8,9.1h-1.9l-3.6-9.1h2.1l2.5,6.7L44,7.6H46.1z"/>
		<path class="st2" d="M55.5,12.9h-7.1c0.1,0.8,0.4,1.4,0.8,1.7c0.5,0.4,1.1,0.6,1.8,0.6c0.6,0,1.1-0.1,1.5-0.4
			c0.4-0.3,0.7-0.6,1-1.1l1.6,0.7c-0.3,0.8-0.9,1.4-1.6,1.9c-0.7,0.4-1.6,0.7-2.5,0.7c-0.7,0-1.3-0.1-1.8-0.3c-0.5-0.2-1-0.6-1.4-1
			c-0.4-0.4-0.7-0.9-0.9-1.5c-0.2-0.6-0.3-1.2-0.3-1.9c0-0.7,0.1-1.3,0.3-1.9c0.2-0.6,0.5-1.1,0.9-1.5c0.4-0.4,0.9-0.8,1.4-1
			c0.6-0.2,1.2-0.4,1.8-0.4c0.7,0,1.3,0.1,1.8,0.3c0.5,0.2,1,0.6,1.4,1c0.4,0.4,0.7,0.9,0.9,1.5c0.2,0.6,0.3,1.2,0.3,2V12.9z
			 M53.5,11.5c0-0.8-0.3-1.4-0.7-1.9C52.4,9.2,51.8,9,51,9s-1.3,0.2-1.8,0.6c-0.4,0.4-0.7,1.1-0.8,1.9H53.5z"/>
		<path class="st2" d="M65.8,11.1v5.6h-2v-5.2c0-0.9-0.2-1.5-0.6-1.8c-0.4-0.3-0.9-0.5-1.5-0.5c-0.3,0-0.6,0.1-0.9,0.2
			c-0.3,0.1-0.5,0.3-0.7,0.5c-0.2,0.2-0.4,0.5-0.5,0.8c-0.1,0.3-0.2,0.7-0.2,1.1v5.1h-2V7.6h1.8l0.1,1.1c0.3-0.4,0.6-0.7,1.1-1
			c0.5-0.2,1.1-0.4,1.7-0.4c1.1,0,2,0.3,2.7,1C65.4,9,65.8,9.9,65.8,11.1z"/>
		<path class="st2" d="M74.7,16.7c-0.1-0.3-0.1-0.7-0.2-1.1c-0.3,0.4-0.6,0.8-1.1,1c-0.5,0.2-1,0.3-1.7,0.3c-1,0-1.9-0.3-2.6-0.9
			c-0.7-0.6-1.1-1.6-1.1-2.9V7.6h2v5.2c0,0.9,0.2,1.5,0.6,1.9c0.4,0.4,0.9,0.5,1.5,0.5c0.3,0,0.6-0.1,0.9-0.2
			c0.3-0.1,0.5-0.3,0.7-0.5c0.2-0.2,0.4-0.5,0.5-0.8c0.1-0.3,0.2-0.7,0.2-1.1V7.6h2V15c0,0.2,0,0.5,0,0.9c0,0.3,0.1,0.6,0.1,0.8
			H74.7z"/>
		<path class="st2" d="M87.2,12.9h-7.1c0.1,0.8,0.4,1.4,0.8,1.7c0.5,0.4,1.1,0.6,1.8,0.6c0.6,0,1.1-0.1,1.5-0.4
			c0.4-0.3,0.7-0.6,1-1.1l1.6,0.7c-0.3,0.8-0.9,1.4-1.6,1.9c-0.7,0.4-1.6,0.7-2.5,0.7c-0.7,0-1.3-0.1-1.8-0.3s-1-0.6-1.4-1
			c-0.4-0.4-0.7-0.9-0.9-1.5c-0.2-0.6-0.3-1.2-0.3-1.9c0-0.7,0.1-1.3,0.3-1.9c0.2-0.6,0.5-1.1,0.9-1.5c0.4-0.4,0.9-0.8,1.4-1
			c0.6-0.2,1.2-0.4,1.8-0.4c0.7,0,1.3,0.1,1.8,0.3c0.5,0.2,1,0.6,1.4,1c0.4,0.4,0.7,0.9,0.9,1.5c0.2,0.6,0.3,1.2,0.3,2V12.9z
			 M85.2,11.5c0-0.8-0.3-1.4-0.7-1.9c-0.4-0.4-1-0.6-1.8-0.6C82,9,81.4,9.2,81,9.7c-0.4,0.4-0.7,1.1-0.8,1.9H85.2z"/>
	</g>
</g>
</svg>
