<?xml version="1.0" standalone="no"?>
<!DOCTYPE svg PUBLIC "-//W3C//DTD SVG 20010904//EN"
 "http://www.w3.org/TR/2001/REC-SVG-20010904/DTD/svg10.dtd">
<svg version="1.0" xmlns="http://www.w3.org/2000/svg"
 width="384.000000pt" height="384.000000pt" viewBox="0 0 384.000000 384.000000"
 preserveAspectRatio="xMidYMid meet">
<metadata>
Created by potrace 1.11, written by Peter Selinger 2001-2013
</metadata>
<g transform="translate(0.000000,384.000000) scale(0.100000,-0.100000)"
fill="#000000" stroke="none">
<path d="M0 1920 l0 -1920 1920 0 1920 0 0 1920 0 1920 -1920 0 -1920 0 0
-1920z m2505 1270 c17 -11 242 -232 502 -492 519 -520 515 -515 534 -656 5
-38 5 -323 1 -664 l-7 -597 -35 -36 c-19 -19 -50 -40 -70 -45 -19 -5 -124 -10
-232 -10 l-198 0 0 617 0 618 -287 287 -286 286 -204 -196 c-112 -108 -257
-247 -321 -309 l-117 -112 -175 175 c-96 96 -180 174 -185 174 -5 0 -112 -102
-237 -227 l-228 -228 0 -262 0 -263 40 0 c22 0 40 -4 40 -10 0 -5 -9 -10 -20
-10 -11 0 -20 -4 -20 -10 0 -5 -18 -20 -40 -32 -22 -13 -40 -27 -40 -33 -1 -5
-24 -26 -52 -45 -28 -19 -60 -45 -71 -58 -11 -12 -27 -22 -34 -22 -7 0 -13 -4
-13 -8 0 -5 -15 -20 -34 -33 -42 -31 -120 -96 -156 -131 -15 -16 -32 -28 -37
-28 -5 0 -21 -13 -36 -28 -19 -20 -25 -34 -21 -47 5 -12 3 -16 -5 -14 -7 3
-12 8 -12 12 1 4 -7 15 -17 25 -16 16 -20 42 -25 178 -11 246 -8 862 3 933 21
125 27 132 488 590 235 233 440 433 457 443 36 21 93 23 138 4 18 -8 90 -73
162 -145 l130 -131 270 270 c287 287 312 306 385 294 19 -3 49 -14 65 -24z"/>
</g>
</svg>
