<?xml version="1.0" encoding="utf-8"?>
<!-- Generator: Adobe Illustrator 23.0.6, SVG Export Plug-In . SVG Version: 6.00 Build 0)  -->
<svg width="124px" height="28.3px" viewBox="0 0 92 21" version="1.1" xmlns="http://www.w3.org/2000/svg" xmlns:xlink="http://www.w3.org/1999/xlink">
<style type="text/css">
	.st0{fill:url(#SVGID_1_);}
	.st1{fill:url(#SVGID_2_);}
	.st2{fill:#FFFFFF;}
</style>
<title>Group 2</title>
<desc>Created with Sketch.</desc>
<g>
	<g>
		<g>
			<g>
				<linearGradient id="SVGID_1_" gradientUnits="userSpaceOnUse" x1="83.8401" y1="12.1128" x2="78.7865" y2="5.8764">
					<stop  offset="0" style="stop-color:#0E67DC"/>
					<stop  offset="1" style="stop-color:#2AA5FF"/>
				</linearGradient>
				<path class="st0" d="M85.7,9.3h-6.3V7.3l1.8-1.8l1.4,1.4l1-1l0.6-0.6l-1.5-1.5l-1-1c-0.1-0.1-0.3-0.2-0.4-0.2
					c-0.2,0-0.3,0.1-0.4,0.2l-3.2,3.2c-0.3,0.3-0.4,0.6-0.4,1V11c0,0.3,0.3,0.6,0.6,0.6h9.3h0.3V9.3H85.7z"/>
			</g>
		</g>
		<g>
			<linearGradient id="SVGID_2_" gradientUnits="userSpaceOnUse" x1="89.117" y1="9.567" x2="83.7408" y2="2.1121">
				<stop  offset="0" style="stop-color:#41D3BD"/>
				<stop  offset="0.9996" style="stop-color:#90FFFF"/>
			</linearGradient>
			<path class="st1" d="M89.6,6.4V11c0,0.3-0.3,0.6-0.6,0.6h-1.5V9.3V6.7l-2.3-2.3l-1,0.9l-1.5-1.5l2-2c0.2-0.2,0.6-0.2,0.9,0
				l3.6,3.6C89.5,5.7,89.6,6,89.6,6.4z"/>
		</g>
	</g>
	<g>
		<path class="st2" d="M12.5,15.3H6.2l-1.4,3.8H2.4L8.1,3.4h2.4h0.2l5.7,15.7h-2.5L12.5,15.3z M11.8,13.3L9.4,6.4l-2.4,6.9H11.8z"/>
		<path class="st2" d="M27,8.5l-4.4,10.6h-2.3L16.1,8.5h2.5l3,7.9l3.1-7.9H27z"/>
		<path class="st2" d="M38,14.7h-8.3c0.1,0.9,0.4,1.6,1,2c0.6,0.4,1.3,0.7,2.1,0.7c0.7,0,1.3-0.2,1.8-0.5c0.5-0.3,0.9-0.7,1.1-1.3
			l1.9,0.8c-0.4,1-1,1.7-1.9,2.2c-0.9,0.5-1.8,0.8-2.9,0.8c-0.8,0-1.5-0.1-2.1-0.4c-0.6-0.3-1.2-0.6-1.7-1.1
			c-0.5-0.5-0.8-1.1-1.1-1.8c-0.3-0.7-0.4-1.4-0.4-2.3c0-0.8,0.1-1.6,0.4-2.3c0.3-0.7,0.6-1.3,1.1-1.8c0.5-0.5,1-0.9,1.7-1.2
			c0.6-0.3,1.4-0.4,2.2-0.4c0.8,0,1.5,0.1,2.1,0.4c0.6,0.3,1.2,0.6,1.6,1.1c0.5,0.5,0.8,1.1,1,1.8c0.2,0.7,0.4,1.5,0.4,2.3V14.7z
			 M35.7,13c-0.1-1-0.3-1.7-0.8-2.2c-0.5-0.5-1.2-0.7-2.1-0.7c-0.9,0-1.6,0.3-2.1,0.8c-0.5,0.5-0.8,1.2-0.9,2.2H35.7z"/>
		<path class="st2" d="M50.1,12.6v6.5h-2.3V13c0-1-0.2-1.8-0.7-2.2c-0.5-0.4-1.1-0.6-1.7-0.6c-0.4,0-0.7,0.1-1.1,0.2
			c-0.3,0.1-0.6,0.3-0.9,0.6c-0.3,0.2-0.4,0.5-0.6,0.9c-0.1,0.4-0.2,0.8-0.2,1.3v5.9h-2.3V8.5h2.2l0.1,1.2c0.3-0.5,0.7-0.9,1.3-1.1
			c0.6-0.3,1.2-0.4,2-0.4c1.3,0,2.3,0.4,3.1,1.1C49.7,10,50.1,11.1,50.1,12.6z"/>
		<path class="st2" d="M60.5,19.1c-0.1-0.4-0.2-0.8-0.2-1.3C60,18.3,59.6,18.7,59,19c-0.6,0.3-1.2,0.4-1.9,0.4c-1.2,0-2.2-0.3-3-1
			c-0.9-0.7-1.3-1.9-1.3-3.4V8.5h2.3v6c0,1,0.2,1.8,0.7,2.2c0.5,0.4,1.1,0.6,1.8,0.6c0.4,0,0.7-0.1,1-0.2c0.3-0.1,0.6-0.3,0.9-0.5
			c0.3-0.2,0.5-0.5,0.6-0.9c0.1-0.4,0.2-0.8,0.2-1.3V8.5h2.3v8.7c0,0.3,0,0.6,0.1,1c0,0.4,0.1,0.7,0.1,0.9H60.5z"/>
		<path class="st2" d="M75.2,14.7h-8.3c0.1,0.9,0.4,1.6,1,2c0.6,0.4,1.3,0.7,2.1,0.7c0.7,0,1.3-0.2,1.8-0.5c0.5-0.3,0.9-0.7,1.1-1.3
			l1.9,0.8c-0.4,1-1,1.7-1.9,2.2c-0.9,0.5-1.8,0.8-2.9,0.8c-0.8,0-1.5-0.1-2.1-0.4s-1.2-0.6-1.7-1.1c-0.5-0.5-0.8-1.1-1.1-1.8
			c-0.3-0.7-0.4-1.4-0.4-2.3c0-0.8,0.1-1.6,0.4-2.3c0.3-0.7,0.6-1.3,1.1-1.8c0.5-0.5,1-0.9,1.7-1.2c0.6-0.3,1.4-0.4,2.2-0.4
			c0.8,0,1.5,0.1,2.1,0.4c0.6,0.3,1.2,0.6,1.6,1.1c0.5,0.5,0.8,1.1,1,1.8c0.2,0.7,0.4,1.5,0.4,2.3V14.7z M72.9,13
			c-0.1-1-0.3-1.7-0.8-2.2c-0.5-0.5-1.2-0.7-2.1-0.7s-1.6,0.3-2.1,0.8c-0.5,0.5-0.8,1.2-0.9,2.2H72.9z"/>
	</g>
</g>
</svg>
